PathFileType	4	(X/Y/Z)	C:\Users\Basilio\Documents\Thesis Gigler\squatting_fais\c3dfiles\058\SLS_back_pre5\markers_experimental.trc
DataRate	CameraRate	NumFrames	NumMarkers	Units	OrigDataRate	OrigDataStartFrame	OrigNumFrames
200.000000	200.000000	4	61	mm	200.000000	0	1156
Frame#	Time	FHD			LBHD			RBHD			C7			T10			CLAV			LSHO			LUUPA			LMUPA			LDUPA			LLEP			LMEP			LUL			LRFIN			RSHO			RUPA1			RMUPA			RDUPA			RLEP			RMEP			RUL			RUFIN			LASI			RASI			USACR			LSACR			RSACR			LTHI1			LTHI2			LTHI3			LTHI4			LLFC			LMFC			LTIB1			LTIB3			LTIB4			LLMAL			LMMAL			LHEE			LMT1			LMT5			RTHI			RTHI2			RTHI3			RTHI4			RLFC			RMFC			RTIB1			RTIB2			RTIB3			RTIB4			RLMAL			RMMAL			RHEE			RMT1			RMT2			RMT5			LTIB2			LMT2			LRAD			RRAD			
		X1	Y1	Z1	X2	Y2	Z2	X3	Y3	Z3	X4	Y4	Z4	X5	Y5	Z5	X6	Y6	Z6	X7	Y7	Z7	X8	Y8	Z8	X9	Y9	Z9	X10	Y10	Z10	X11	Y11	Z11	X12	Y12	Z12	X13	Y13	Z13	X14	Y14	Z14	X15	Y15	Z15	X16	Y16	Z16	X17	Y17	Z17	X18	Y18	Z18	X19	Y19	Z19	X20	Y20	Z20	X21	Y21	Z21	X22	Y22	Z22	X23	Y23	Z23	X24	Y24	Z24	X25	Y25	Z25	X26	Y26	Z26	X27	Y27	Z27	X28	Y28	Z28	X29	Y29	Z29	X30	Y30	Z30	X31	Y31	Z31	X32	Y32	Z32	X33	Y33	Z33	X34	Y34	Z34	X35	Y35	Z35	X36	Y36	Z36	X37	Y37	Z37	X38	Y38	Z38	X39	Y39	Z39	X40	Y40	Z40	X41	Y41	Z41	X42	Y42	Z42	X43	Y43	Z43	X44	Y44	Z44	X45	Y45	Z45	X46	Y46	Z46	X47	Y47	Z47	X48	Y48	Z48	X49	Y49	Z49	X50	Y50	Z50	X51	Y51	Z51	X52	Y52	Z52	X53	Y53	Z53	X54	Y54	Z54	X55	Y55	Z55	X56	Y56	Z56	X57	Y57	Z57	X58	Y58	Z58	X59	Y59	Z59	X60	Y60	Z60	X61	Y61	Z61	

1	0	-251.7799682617188	1800.777099609375	-630.6513671875001	-411.893524169922	1763.653686523438	-705.1600952148439	-238.3034362792969	1806.48779296875	-772.6457519531252	-432.5398254394532	1594.6357421875	-724.8046264648439	-434.0350036621095	1288.603271484375	-723.2944335937501	-279.0486755371094	1548.330322265625	-701.2456054687501	-287.1838073730469	1608.49560546875	-853.5476074218752	-127.8409042358399	1541.062744140625	-959.3037109375002	-104.499496459961	1578.085083007813	-933.689147949219	-58.60145187377931	1540.826416015625	-948.3272094726565	15.28822040557862	1543.660278320313	-929.8911743164065	18.06099319458008	1489.595092773438	-892.727233886719	280.4756469726563	1582.711059570313	-887.685485839844	365.5653991699219	1601.354125976563	-800.1225585937502	-314.6900939941407	1602.035888671875	-550.5713500976564	-163.1875610351563	1507.515991210938	-436.395477294922	-138.4924468994141	1547.072387695313	-455.5225219726564	-94.14839935302736	1515.390625	-432.5718688964845	-24.85032653808594	1507.134521484375	-436.4268798828126	-13.88577461242676	1453.752807617188	-493.3591918945314	240.6520233154297	1566.173706054688	-435.900848388672	327.0818176269532	1602.689819335938	-502.2584228515626	-251.6696472167969	1089.994140625	-851.3782348632815	-260.8778686523438	1075.544311523438	-608.1901245117189	-446.592010498047	1173.774658203125	-722.9216918945314	-453.9288330078126	1143.940185546875	-752.7866821289064	-452.0136108398439	1140.311157226563	-694.9276733398439	-248.3869781494141	837.2774047851565	-972.7282714843752	-200.9449768066407	765.9075927734376	-980.7913818359377	-157.0595397949219	768.9143066406252	-954.9509887695315	-218.7485656738282	708.7968139648439	-990.4309082031252	-224.5414581298829	631.2424926757814	-989.2496337890627	-208.4272155761719	596.1889038085939	-854.0759277343752	-328.6023559570313	566.9301757812501	-945.3353271484377	-375.7119445800782	594.0246582031251	-971.9241943359377	-451.8572387695314	597.8338623046876	-936.4832763671877	-630.9945068359376	693.5565185546876	-918.5092773437502	-614.9982299804689	650.9373779296876	-835.1004028320315	-595.6038818359376	745.0226440429689	-860.6082763671877	-757.3049926757814	600.5156250000001	-818.9700317382815	-775.2556152343752	660.1831665039064	-909.6238403320315	-375.9226379394532	867.9922485351565	-561.7381591796876	-340.3043823242188	812.5592041015627	-559.6470947265626	-307.1886901855469	811.7585449218752	-558.1051025390626	-364.9990234375001	736.1447143554689	-584.4691162109376	-356.4365234375001	554.8302612304689	-612.2088012695314	-309.8070373535157	552.7471313476564	-741.5169677734376	-301.4343872070313	356.0407714843751	-707.2431640625001	-345.8311462402344	273.7015991210938	-651.6412353515626	-307.8851928710938	269.2988586425782	-680.1329345703126	-314.6085510253907	228.6062927246094	-719.8386840820314	-377.2475585937501	115.3051223754883	-692.5336914062501	-342.0955810546876	146.3155670166016	-774.9931640625002	-439.1567687988282	102.5553894042969	-760.5870971679689	-227.9974060058594	63.6161346435547	-770.6924438476565	-224.9316101074219	57.16934204101564	-719.3136596679689	-273.7302856445313	23.14048194885254	-669.9801025390626	nan	nan	nan	nan	nan	nan	nan	nan	nan	nan	nan	nan	
2	0.005	-251.7713012695313	1800.762817382813	-630.4591674804689	-411.8847656250001	1763.746948242188	-705.0554809570314	-238.217514038086	1806.531616210938	-772.4802856445315	-432.6070556640626	1594.62548828125	-724.6054077148439	-433.8906860351564	1288.617309570313	-723.2105712890626	-279.0833740234376	1548.465576171875	-701.1313476562501	-287.2070617675782	1608.55712890625	-853.3923950195315	-127.7493515014649	1541.291625976563	-958.9035644531252	-104.37158203125	1578.348388671875	-933.2187500000002	-58.42377853393556	1541.25732421875	-947.823425292969	15.3708667755127	1544.067626953125	-929.3049926757815	18.11234474182129	1489.785034179688	-892.1119384765627	280.4784240722657	1583.314697265625	-887.0446777343752	365.3797912597657	1601.935302734375	-799.442077636719	-314.6835327148438	1602.120361328125	-550.4915161132814	-162.9835662841797	1507.94970703125	-436.4461669921876	-138.3743438720703	1547.376098632813	-455.5856018066407	-94.04845428466798	1515.796997070313	-432.6776733398439	-24.47613334655762	1507.677734375	-436.625213623047	-13.5700969696045	1454.175170898438	-493.4497070312501	241.1160430908204	1567.13330078125	-436.2920532226564	327.3553466796876	1603.418090820313	-502.7237243652345	-251.3949432373047	1090.029907226563	-851.229919433594	-261.4627380371094	1074.9560546875	-608.7139892578126	-446.4212646484376	1173.8759765625	-722.9423828125001	-453.6566467285157	1144.050537109375	-752.8464355468751	-451.8595275878907	1140.363403320313	-694.9357299804689	-249.1351623535157	837.0356445312502	-972.7402343750002	-202.1005401611329	765.4024047851564	-980.855651855469	-157.839096069336	768.3203125000002	-955.111022949219	-220.1739196777344	708.5271606445314	-990.4948730468752	-226.5540618896485	630.8112182617189	-989.4078369140627	-210.6702880859376	595.6976318359376	-854.474792480469	-330.8599243164063	567.3527221679689	-945.4458618164065	-377.5033874511719	594.0488281250001	-971.5454711914065	-453.859588623047	599.0937500000001	-936.5771484375002	-632.2514648437501	696.2756347656251	-918.5355224609377	-616.7255249023439	653.5120239257814	-834.7947998046877	-596.2150268554689	747.1937255859376	-860.8008422851565	-759.6599731445314	604.8499145507814	-818.9810791015627	-776.5522460937502	663.7743530273439	-909.351013183594	-375.8711547851563	867.9512329101565	-561.6668090820314	-340.2866210937501	812.5230712890627	-559.4779052734376	-307.1124267578126	811.6881103515627	-558.0167236328126	-364.9731750488282	736.1229858398439	-584.2411499023439	-356.2626342773438	554.7807006835939	-612.0626831054689	-309.6270141601563	552.6375122070314	-741.3985595703126	-301.3411254882813	356.0207519531251	-707.1348266601564	-345.8337402343751	273.6956481933594	-651.5373535156251	-307.8020324707032	269.2646789550782	-680.0554199218751	-314.6126708984376	228.612045288086	-719.7501831054689	-377.2714233398438	115.2682113647461	-692.4312744140626	-342.0476989746094	146.3303527832032	-774.8320312500002	-439.1689453125001	102.5520858764649	-760.5576782226564	-227.9933166503907	63.67249298095705	-770.6028442382815	-224.9508514404297	57.17152023315431	-719.2810058593751	-273.7802124023438	23.07647132873536	-669.9241333007814	nan	nan	nan	nan	nan	nan	nan	nan	nan	nan	nan	nan	
3	0.01	-251.845443725586	1800.7998046875	-630.2951660156251	-411.8601684570314	1763.802001953125	-704.9953613281251	-238.1316223144532	1806.5029296875	-772.3081665039065	-432.664520263672	1594.593994140625	-724.4370727539064	-433.7562255859376	1288.64306640625	-723.1024780273439	-279.0499267578126	1548.633422851563	-700.9854736328126	-287.2371215820313	1608.567138671875	-853.2515258789065	-127.6841278076172	1541.530029296875	-958.5755004882815	-104.2500991821289	1578.622436523438	-932.7524414062502	-58.33344650268556	1541.637084960938	-947.3547363281252	15.40516662597657	1544.490112304688	-928.7188110351565	18.1623764038086	1489.956176757813	-891.6123657226565	280.3773193359376	1583.930541992188	-886.3709716796877	365.1510314941407	1602.498901367188	-798.807800292969	-314.6071777343751	1602.174194335938	-550.4645385742189	-162.7819061279297	1508.227294921875	-436.5378417968751	-138.3183288574219	1547.748168945313	-455.6753540039064	-93.71675872802736	1516.345336914063	-432.8031311035157	-24.33439826965333	1508.436767578125	-436.6090698242189	-13.38687705993653	1454.732421875	-493.5247802734376	241.5507507324219	1567.929321289063	-436.5905761718751	327.4281311035157	1604.122924804688	-503.0144653320314	-251.1900329589844	1090.053466796875	-851.069763183594	-261.4565124511719	1074.86083984375	-608.5557861328126	-446.2508239746095	1173.987548828125	-722.9263916015626	-453.458953857422	1144.167236328125	-752.8928222656251	-451.7118530273439	1140.440307617188	-694.9997558593751	-250.4830169677735	836.6324462890627	-972.697692871094	-203.3805389404297	764.8713378906251	-980.7920532226565	-159.8341674804688	766.6701660156251	-955.3091430664065	-221.5895538330079	708.1422119140626	-990.531433105469	-228.4416656494141	630.4672241210939	-989.4461669921877	-212.7562866210938	595.1299438476564	-854.568298339844	-333.0330505371094	567.5723876953126	-945.7089843750002	-379.5436096191407	594.8953857421876	-971.1262207031252	-455.919158935547	600.2662353515626	-936.6208496093752	-633.4466552734376	698.7537231445314	-918.6793212890627	-618.3005981445314	655.8506469726564	-835.108581542969	-596.8872070312501	749.4589843750001	-861.0051879882815	-761.7396240234376	608.6550903320314	-818.5976562500002	-778.187438964844	668.1742553710939	-908.9592285156252	-375.8747558593751	867.872497558594	-561.6121215820314	-340.2269592285157	812.5031738281252	-559.3110351562501	-307.0696716308594	811.6466064453127	-557.9132080078126	-364.9165649414063	736.0129394531251	-584.2066650390626	-355.9970397949219	554.6882934570314	-612.0782470703126	-309.3664855957032	552.6224365234376	-741.3619995117189	-301.2916870117188	355.9554748535157	-707.1019897460939	-345.6804504394532	273.6446533203126	-651.4519042968751	-307.7098083496094	269.1938171386719	-680.0015258789064	-314.5793151855469	228.5926666259766	-719.6275024414064	-377.2848510742188	115.2230606079102	-692.3855590820314	-341.9998779296876	146.3374176025391	-774.6912231445315	-439.1938781738282	102.5649108886719	-760.4724121093751	-228.0538940429688	63.71156692504884	-770.5130004882815	-224.9933319091797	57.13452148437501	-719.2292480468751	-273.7797241210938	23.04588127136231	-669.8956298828126	nan	nan	nan	nan	nan	nan	nan	nan	nan	nan	nan	nan	
4	0.015	-251.8856658935547	1800.800415039063	-630.1387329101564	-411.9570922851564	1763.870971679688	-704.8868408203126	-238.0996704101563	1806.532104492188	-772.132263183594	-432.6800537109376	1594.590698242188	-724.3355712890626	-433.579071044922	1288.642700195313	-723.0380249023439	-279.0188598632813	1548.757080078125	-700.8658447265626	-287.2705078125001	1608.553955078125	-853.0729980468752	-127.6616821289063	1541.758422851563	-958.2168579101565	-104.3251190185547	1578.86083984375	-932.3630371093752	-58.34091949462892	1542.007080078125	-946.9345703125002	15.47431945800782	1544.877685546875	-928.252380371094	18.24080657958985	1490.162231445313	-891.0318603515627	280.3885803222657	1584.534912109375	-885.671813964844	365.1478881835938	1603.14501953125	-798.0828857421877	-314.5508117675782	1602.261108398438	-550.3698730468751	-162.666015625	1508.55322265625	-436.4681396484376	-138.26513671875	1548.048950195313	-455.7276916503907	-93.56434631347658	1516.692749023438	-432.8250732421876	-24.1662998199463	1508.84619140625	-436.715301513672	-13.2270736694336	1455.139404296875	-493.5205688476564	241.7462615966797	1568.491333007813	-436.8523864746095	327.8180847167969	1604.887939453125	-503.4329223632814	-250.9597167968751	1090.100952148438	-850.9148559570315	-261.4001770019532	1074.761108398438	-608.4468994140626	-446.0862731933595	1174.112548828125	-722.8839721679689	-453.2067260742189	1144.267578125	-752.8854370117189	-451.5617675781251	1140.477294921875	-694.9860839843751	-251.3289337158204	836.3360595703127	-972.7766113281252	-204.4742736816407	764.4732055664064	-980.7366333007815	-160.3544464111328	766.4464111328126	-955.0489501953127	-222.9421691894532	707.8351440429689	-990.5892333984377	-230.1391754150391	630.0462646484376	-989.520690917969	-214.6174468994141	594.6898193359376	-854.6472778320315	-334.5830078125001	567.3237304687501	-947.1277465820315	-381.6215515136719	595.6416625976564	-970.8114013671877	-457.9581604003907	601.2434082031251	-936.6087036132815	-634.7708740234376	701.0404052734376	-918.8093261718752	-619.9683227539064	658.1453857421876	-835.342468261719	-597.5304565429689	751.2290039062501	-861.2268066406252	-763.7865600585939	612.3438110351564	-818.5171508789065	-779.4786376953127	670.0639038085939	-909.2635498046877	-375.8618774414063	867.8123779296877	-561.5322875976564	-340.2048950195313	812.453308105469	-559.0872192382814	-307.0247192382813	811.602478027344	-557.8139648437501	-364.8501281738282	735.9573364257814	-584.1738281250001	-355.8472290039063	554.6223754882814	-612.0859985351564	-309.1725769042969	552.6340332031251	-741.3342895507814	-301.1838989257813	355.9461975097657	-707.0646972656251	-345.5485229492188	273.6528015136719	-651.4746093750001	-307.6716613769532	269.1663818359376	-679.9614868164064	-314.5642089843751	228.5465087890626	-719.6281127929689	-377.2580566406251	115.1976089477539	-692.3092041015626	-342.0344238281251	146.3563995361328	-774.653991699219	-439.1824645996095	102.5498123168946	-760.4284057617189	-228.0689392089844	63.70381546020509	-770.5271606445315	-224.9841918945313	57.14706802368165	-719.1663818359376	-273.8117980957032	22.98832893371582	-669.8696899414064	nan	nan	nan	nan	nan	nan	nan	nan	nan	nan	nan	nan	
